<mxfile host="app.diagrams.net" modified="2024-01-30T04:13:58.287Z" agent="Mozilla/5.0 (X11; Linux x86_64) AppleWebKit/537.36 (KHTML, like Gecko) Chrome/114.0.0.0 Safari/537.36" etag="XG33eUBmb0Fkm7BMEpVJ" version="23.0.2" type="github">
  <diagram name="Halaman-1" id="yw10zihiVMG1K3lpHF1t">
    <mxGraphModel dx="1879" dy="627" grid="1" gridSize="10" guides="1" tooltips="1" connect="1" arrows="1" fold="1" page="1" pageScale="1" pageWidth="827" pageHeight="1169" math="0" shadow="0">
      <root>
        <mxCell id="0" />
        <mxCell id="1" parent="0" />
        <mxCell id="BYR8LOFcLCY9UV0KhoH4-3" value="" style="edgeStyle=orthogonalEdgeStyle;rounded=0;orthogonalLoop=1;jettySize=auto;html=1;" edge="1" parent="1" source="BYR8LOFcLCY9UV0KhoH4-1" target="BYR8LOFcLCY9UV0KhoH4-2">
          <mxGeometry relative="1" as="geometry" />
        </mxCell>
        <mxCell id="BYR8LOFcLCY9UV0KhoH4-1" value="user" style="rounded=1;whiteSpace=wrap;html=1;" vertex="1" parent="1">
          <mxGeometry x="-120" y="250" width="120" height="60" as="geometry" />
        </mxCell>
        <mxCell id="BYR8LOFcLCY9UV0KhoH4-11" value="" style="edgeStyle=orthogonalEdgeStyle;rounded=0;orthogonalLoop=1;jettySize=auto;html=1;" edge="1" parent="1" source="BYR8LOFcLCY9UV0KhoH4-2" target="BYR8LOFcLCY9UV0KhoH4-10">
          <mxGeometry relative="1" as="geometry" />
        </mxCell>
        <mxCell id="BYR8LOFcLCY9UV0KhoH4-2" value="mengunjungi perpus" style="whiteSpace=wrap;html=1;rounded=1;" vertex="1" parent="1">
          <mxGeometry x="40" y="250" width="120" height="60" as="geometry" />
        </mxCell>
        <mxCell id="BYR8LOFcLCY9UV0KhoH4-7" value="" style="edgeStyle=orthogonalEdgeStyle;rounded=0;orthogonalLoop=1;jettySize=auto;html=1;" edge="1" parent="1" source="BYR8LOFcLCY9UV0KhoH4-4" target="BYR8LOFcLCY9UV0KhoH4-6">
          <mxGeometry relative="1" as="geometry" />
        </mxCell>
        <mxCell id="BYR8LOFcLCY9UV0KhoH4-4" value="isi form pengunjung" style="whiteSpace=wrap;html=1;rounded=1;" vertex="1" parent="1">
          <mxGeometry x="210" y="140" width="120" height="60" as="geometry" />
        </mxCell>
        <mxCell id="BYR8LOFcLCY9UV0KhoH4-9" value="" style="edgeStyle=orthogonalEdgeStyle;rounded=0;orthogonalLoop=1;jettySize=auto;html=1;" edge="1" parent="1" source="BYR8LOFcLCY9UV0KhoH4-6" target="BYR8LOFcLCY9UV0KhoH4-8">
          <mxGeometry relative="1" as="geometry" />
        </mxCell>
        <mxCell id="BYR8LOFcLCY9UV0KhoH4-6" value="kirim" style="whiteSpace=wrap;html=1;rounded=1;" vertex="1" parent="1">
          <mxGeometry x="360" y="140" width="120" height="60" as="geometry" />
        </mxCell>
        <mxCell id="BYR8LOFcLCY9UV0KhoH4-8" value="daftar kunjungan" style="whiteSpace=wrap;html=1;rounded=1;" vertex="1" parent="1">
          <mxGeometry x="520" y="140" width="120" height="60" as="geometry" />
        </mxCell>
        <mxCell id="BYR8LOFcLCY9UV0KhoH4-15" value="" style="edgeStyle=orthogonalEdgeStyle;rounded=0;orthogonalLoop=1;jettySize=auto;html=1;" edge="1" parent="1" source="BYR8LOFcLCY9UV0KhoH4-10" target="BYR8LOFcLCY9UV0KhoH4-14">
          <mxGeometry relative="1" as="geometry" />
        </mxCell>
        <mxCell id="BYR8LOFcLCY9UV0KhoH4-10" value="pencarian buku" style="whiteSpace=wrap;html=1;rounded=1;" vertex="1" parent="1">
          <mxGeometry x="200" y="350" width="120" height="60" as="geometry" />
        </mxCell>
        <mxCell id="BYR8LOFcLCY9UV0KhoH4-17" value="" style="edgeStyle=orthogonalEdgeStyle;rounded=0;orthogonalLoop=1;jettySize=auto;html=1;" edge="1" parent="1" source="BYR8LOFcLCY9UV0KhoH4-14" target="BYR8LOFcLCY9UV0KhoH4-16">
          <mxGeometry relative="1" as="geometry" />
        </mxCell>
        <mxCell id="BYR8LOFcLCY9UV0KhoH4-14" value="masukan kata kunci judul" style="whiteSpace=wrap;html=1;rounded=1;" vertex="1" parent="1">
          <mxGeometry x="360" y="350" width="120" height="60" as="geometry" />
        </mxCell>
        <mxCell id="BYR8LOFcLCY9UV0KhoH4-19" value="" style="edgeStyle=orthogonalEdgeStyle;rounded=0;orthogonalLoop=1;jettySize=auto;html=1;" edge="1" parent="1" source="BYR8LOFcLCY9UV0KhoH4-16" target="BYR8LOFcLCY9UV0KhoH4-18">
          <mxGeometry relative="1" as="geometry" />
        </mxCell>
        <mxCell id="BYR8LOFcLCY9UV0KhoH4-16" value="hasil pencarian" style="whiteSpace=wrap;html=1;rounded=1;" vertex="1" parent="1">
          <mxGeometry x="520" y="350" width="120" height="60" as="geometry" />
        </mxCell>
        <mxCell id="BYR8LOFcLCY9UV0KhoH4-18" value="liat rincian buku" style="whiteSpace=wrap;html=1;rounded=1;" vertex="1" parent="1">
          <mxGeometry x="520" y="440" width="120" height="60" as="geometry" />
        </mxCell>
        <mxCell id="BYR8LOFcLCY9UV0KhoH4-24" value="" style="endArrow=classic;html=1;rounded=0;" edge="1" parent="1">
          <mxGeometry width="50" height="50" relative="1" as="geometry">
            <mxPoint x="260" y="280" as="sourcePoint" />
            <mxPoint x="260" y="200" as="targetPoint" />
          </mxGeometry>
        </mxCell>
        <mxCell id="BYR8LOFcLCY9UV0KhoH4-27" value="" style="endArrow=none;html=1;rounded=0;" edge="1" parent="1">
          <mxGeometry width="50" height="50" relative="1" as="geometry">
            <mxPoint x="300" y="240" as="sourcePoint" />
            <mxPoint x="600" y="240" as="targetPoint" />
          </mxGeometry>
        </mxCell>
        <mxCell id="BYR8LOFcLCY9UV0KhoH4-28" value="" style="endArrow=classic;html=1;rounded=0;entryX=0.75;entryY=1;entryDx=0;entryDy=0;" edge="1" parent="1" target="BYR8LOFcLCY9UV0KhoH4-4">
          <mxGeometry width="50" height="50" relative="1" as="geometry">
            <mxPoint x="300" y="240" as="sourcePoint" />
            <mxPoint x="350" y="190" as="targetPoint" />
          </mxGeometry>
        </mxCell>
        <mxCell id="BYR8LOFcLCY9UV0KhoH4-29" value="" style="endArrow=none;html=1;rounded=0;entryX=0.667;entryY=1.017;entryDx=0;entryDy=0;entryPerimeter=0;" edge="1" parent="1" target="BYR8LOFcLCY9UV0KhoH4-8">
          <mxGeometry width="50" height="50" relative="1" as="geometry">
            <mxPoint x="600" y="240" as="sourcePoint" />
            <mxPoint x="650" y="190" as="targetPoint" />
          </mxGeometry>
        </mxCell>
        <mxCell id="BYR8LOFcLCY9UV0KhoH4-31" value="" style="endArrow=none;html=1;rounded=0;" edge="1" parent="1">
          <mxGeometry width="50" height="50" relative="1" as="geometry">
            <mxPoint x="260" y="480" as="sourcePoint" />
            <mxPoint x="260" y="410" as="targetPoint" />
          </mxGeometry>
        </mxCell>
        <mxCell id="BYR8LOFcLCY9UV0KhoH4-32" value="" style="endArrow=classic;html=1;rounded=0;entryX=-0.042;entryY=0.633;entryDx=0;entryDy=0;entryPerimeter=0;" edge="1" parent="1" target="BYR8LOFcLCY9UV0KhoH4-18">
          <mxGeometry width="50" height="50" relative="1" as="geometry">
            <mxPoint x="260" y="480" as="sourcePoint" />
            <mxPoint x="310" y="430" as="targetPoint" />
          </mxGeometry>
        </mxCell>
      </root>
    </mxGraphModel>
  </diagram>
</mxfile>
